<svg width="14" height="17" fill="none" xmlns="http://www.w3.org/2000/svg"><g opacity=".299" fill="#fff"><path fill-rule="evenodd" clip-rule="evenodd" d="M6.916.413c1.559 0 3.073.526 4.267 1.483 1.56 1.25 2.476 3.026 2.587 5a6.88 6.88 0 01-1.997 5.233L7.215 16.63a.48.48 0 01-.659-.001l-4.494-4.497a6.88 6.88 0 01-2-5.236c.11-1.974 1.029-3.75 2.586-5A6.834 6.834 0 016.916.413zm-3.063 6.86a3.065 3.065 0 003.063 3.062 3.064 3.064 0 003.062-3.063A3.065 3.065 0 006.916 4.21a3.065 3.065 0 00-3.063 3.062z"/><path d="M6.916 5.78a1.493 1.493 0 10.001 2.985 1.493 1.493 0 00-.001-2.986z"/></g></svg>