<svg width="149" height="351" fill="none" xmlns="http://www.w3.org/2000/svg"><g opacity=".03" fill="#fff"><path fill-rule="evenodd" clip-rule="evenodd" d="M147.191.81c33.416 0 65.86 11.282 91.44 31.77 33.416 26.745 53.07 64.775 55.447 107.056 2.277 41.744-13.326 82.586-42.79 112.045l-97.671 96.379c-3.784 3.75-10.346 3.716-14.13-.033l-96.291-96.276C13.665 222.224-1.971 181.349.339 139.637 2.682 97.357 22.37 59.327 55.752 32.58 81.299 12.092 113.776.81 147.19.81zM81.567 147.778c0 36.188 29.43 65.614 65.624 65.614 36.194 0 65.659-29.425 65.625-65.614 0-36.188-29.43-65.614-65.625-65.614-36.193 0-65.624 29.425-65.624 65.614z"/><path d="M147.191 115.795c-17.645 0-31.975 14.329-31.975 31.971s14.33 31.971 31.975 31.971c17.646 0 31.976-14.329 31.976-31.971s-14.33-31.971-31.976-31.971z"/></g></svg>