<svg width="294" height="169" fill="none" xmlns="http://www.w3.org/2000/svg"><path fill-rule="evenodd" clip-rule="evenodd" d="M293.003.003v168H101.884v-168h191.119z" fill="#4AF6CD"/><path d="M135.637 60.223c3.16 0 5.94.46 8.34 1.38 2.44.92 4.62 2.3 6.54 4.14l-4.98 5.88c-2.88-2.28-5.9-3.42-9.06-3.42-1.64 0-2.9.32-3.78.96-.84.6-1.26 1.46-1.26 2.58 0 .8.22 1.46.66 1.98.44.52 1.18 1.02 2.22 1.5 1.04.48 2.68 1.08 4.92 1.8 4.28 1.36 7.4 3.08 9.36 5.16 2 2.04 3 4.88 3 8.52 0 2.64-.68 4.98-2.04 7.02-1.36 2-3.34 3.56-5.94 4.68-2.56 1.12-5.58 1.68-9.06 1.68-6.64 0-12.06-2.02-16.26-6.06l5.46-6.06c3.32 2.72 6.78 4.08 10.38 4.08 1.88 0 3.34-.4 4.38-1.2 1.04-.84 1.56-1.94 1.56-3.3 0-.96-.2-1.74-.6-2.34-.4-.64-1.12-1.2-2.16-1.68-1-.52-2.48-1.08-4.44-1.68-4.72-1.48-8.04-3.26-9.96-5.34-1.92-2.08-2.88-4.7-2.88-7.86 0-2.48.66-4.66 1.98-6.54 1.36-1.88 3.22-3.32 5.58-4.32 2.4-1.04 5.08-1.56 8.04-1.56zm53.405 28.8c0 2.88-.64 5.46-1.92 7.74-1.24 2.28-3.12 4.08-5.64 5.4-2.52 1.28-5.6 1.92-9.24 1.92-5.52 0-9.7-1.34-12.54-4.02-2.84-2.72-4.26-6.4-4.26-11.04v-27.72h11.1v27.36c0 2.52.44 4.38 1.32 5.58.92 1.16 2.38 1.74 4.38 1.74s3.44-.6 4.32-1.8c.88-1.2 1.32-3.04 1.32-5.52v-27.36h11.16v27.72zm20.007-1.38h-3.06v15.36h-11.1v-41.7h14.46c5.88 0 10.26 1.06 13.14 3.18 2.92 2.12 4.38 5.38 4.38 9.78 0 2.64-.62 4.84-1.86 6.6-1.2 1.76-3.14 3.34-5.82 4.74l10.38 17.4h-12.36l-8.16-15.36zm-3.06-7.56h3.72c3.84 0 5.76-1.94 5.76-5.82 0-1.8-.54-3.12-1.62-3.96-1.04-.84-2.62-1.26-4.74-1.26h-3.12v11.04zm26.107 22.92v-41.7h25.62l-1.14 7.86h-13.38v10.02h11.76v7.86h-11.76v15.96h-11.1zM23.077 60.223c5.56 0 10.34 1.76 14.34 5.28l-5.46 5.7c-1.52-1.08-2.9-1.86-4.14-2.34-1.2-.52-2.58-.78-4.14-.78-3 0-5.36 1.16-7.08 3.48-1.68 2.32-2.52 5.86-2.52 10.62 0 3.48.28 6.24.84 8.28.56 2 1.4 3.44 2.52 4.32 1.16.88 2.64 1.32 4.44 1.32 1.8 0 3.44-.38 4.92-1.14v-8.58h-4.74l-1.08-7.62h16.56v20.76c-2.16 1.44-4.6 2.56-7.32 3.36-2.72.8-5.4 1.2-8.04 1.2-13.04 0-19.56-7.32-19.56-21.96 0-4.56.88-8.48 2.64-11.76 1.8-3.32 4.24-5.84 7.32-7.56 3.08-1.72 6.58-2.58 10.5-2.58zm37.585 0c6.04 0 10.74 1.92 14.1 5.76 3.36 3.84 5.04 9.22 5.04 16.14 0 4.52-.76 8.44-2.28 11.76-1.48 3.28-3.66 5.8-6.54 7.56-2.88 1.76-6.32 2.64-10.32 2.64-6.04 0-10.74-1.92-14.1-5.76-3.32-3.84-4.98-9.24-4.98-16.2 0-4.52.74-8.42 2.22-11.7 1.52-3.28 3.7-5.8 6.54-7.56 2.88-1.76 6.32-2.64 10.32-2.64zm0 7.98c-2.6 0-4.52 1.08-5.76 3.24-1.2 2.16-1.8 5.72-1.8 10.68s.62 8.54 1.86 10.74c1.24 2.16 3.14 3.24 5.7 3.24 2.64 0 4.56-1.08 5.76-3.24 1.2-2.16 1.8-5.74 1.8-10.74 0-4.96-.6-8.52-1.8-10.68-1.2-2.16-3.12-3.24-5.76-3.24zm31.215 14.8h20.012v1H91.877z" fill="#fff"/></svg>