<svg width="40" height="25" fill="none" xmlns="http://www.w3.org/2000/svg"><path d="M26.358 4.865l.262-.236c.175-.155.345-.313.51-.469.162-.166.353-.276.521-.417.173-.135.34-.275.509-.4.35-.224.676-.472 1.007-.662.33-.184.638-.387.944-.525l.434-.225.409-.181c.52-.241.95-.388 1.247-.496.297-.096.457-.146.457-.146l.015-.005a.18.18 0 00.116-.116.181.181 0 00-.116-.227s-.18-.056-.509-.116c-.165-.027-.372-.067-.613-.082-.243-.02-.526-.05-.84-.04-.158.002-.326-.001-.5.009a51.26 51.26 0 00-.547.05c-.386.026-.79.114-1.23.204-.225.037-.442.107-.67.177l-.706.22c-.462.194-.968.387-1.46.65-.242.136-.492.277-.743.429-.126.074-.253.15-.38.227-.12.089-.242.177-.363.265-.24.185-.487.37-.738.56-.26.183-.465.421-.703.64l-.701.684a28.88 28.88 0 00-.63.772c-.205.266-.428.53-.617.812-.181.288-.352.585-.53.883-.168.304-.356.595-.506.918-.146.33-.282.665-.42 1.003-.138.336-.276.675-.404 1.016l-.268.955-.27.961-.15.53-.118.437c-.042.146-.075.294-.122.439l-.158.424-.158.427c-.054.142-.124.275-.186.415a12.426 12.426 0 01-1.974 3.038 14.842 14.842 0 01-2.693 2.382c-.976.677-2.008 1.221-3.022 1.678a23.305 23.305 0 01-2.967 1.083 30.116 30.116 0 01-4.696.963c-1.159.145-1.823.155-1.823.155a.175.175 0 00-.17.151.174.174 0 00.151.195h.004s.68.086 1.87.111c.595.014 1.32.007 2.152-.045a26.588 26.588 0 002.791-.305c2.031-.343 4.422-.964 6.775-2.244 1.174-.637 2.337-1.437 3.375-2.435 1.04-.99 1.963-2.16 2.694-3.447.092-.161.191-.317.276-.482l.244-.496c.165-.33.324-.665.457-1.006l.21-.51.052-.129.026-.063.007-.017c.021-.064-.024.07-.017.052l.012-.028.098-.231c.133-.306.264-.613.395-.917l.394-.91c.148-.253.285-.505.42-.756.134-.252.27-.5.392-.752.137-.248.302-.488.447-.73.144-.245.289-.486.424-.73.15-.233.314-.45.463-.674.157-.221.296-.45.448-.669l.485-.607c.08-.101.158-.201.238-.3.076-.104.154-.204.242-.289l.506-.535.239-.265z" fill="#4AF6CD"/><path fill-rule="evenodd" clip-rule="evenodd" d="M38.83 23.57c.636.285 1.007.423 1.007.423a.119.119 0 01.072.153.126.126 0 01-.138.076s-.398-.076-1.08-.251a26.77 26.77 0 01-3.067-1 27.303 27.303 0 01-.609-.242l-.433-.19-.503-.22-.37-.182-.602-.298-.741-.416-.252-.141a296.373 296.373 0 01-1-.637c-.236-.167-.469-.344-.704-.522l-.28-.212-.503-.441-.445-.39-.267-.282a32.266 32.266 0 01-.617-.657l-.404-.517-.201-.26-.103-.13-.025-.03-.014-.017-.002-.006s.017.032-.03-.05l-.006-.008-.041-.063-.326-.5a4.482 4.482 0 00-.1-.154 2.352 2.352 0 01-.224-.382l-.153-.307c-.161-.317-.324-.637-.41-.964l-.044-.131a7.338 7.338 0 01-.156-.514l-.046-.285-.062-.389a4.252 4.252 0 00-.016-.13 2.4 2.4 0 01-.022-.206l.003-.342.006-.194c.003-.162.007-.322.032-.482.028-.172.064-.342.1-.51l.032-.15c.025-.144.082-.284.137-.421.028-.069.055-.137.079-.204l.12-.3c.028-.064.065-.125.102-.187.02-.03.038-.061.055-.092l.1-.164c.075-.126.148-.25.234-.363l.032-.038c.256-.3.5-.587.798-.799.216-.196.468-.329.705-.454.067-.036.133-.07.197-.106.113-.05.228-.09.34-.127l.12-.04.044-.015c.131-.045.258-.088.392-.101a3.72 3.72 0 011.465-.005c.196.041.364.088.507.13a6.515 6.515 0 01.623.304c.06.035.08.111.045.171a.122.122 0 01-.09.062l-.017.003-.29.043c-.076.014-.164.024-.263.036l-.067.008-.133.038a6.574 6.574 0 01-.29.08 1.32 1.32 0 00-.328.12 3.687 3.687 0 01-.156.07c-.116.035-.226.105-.338.176a5.91 5.91 0 01-.17.103c-.117.07-.226.162-.336.256-.053.045-.106.09-.16.133a3.388 3.388 0 01-.154.168c-.1.105-.2.21-.278.344-.276.361-.466.813-.572 1.304a1.524 1.524 0 01-.03.136.914.914 0 00-.038.24l-.007.09a4.516 4.516 0 01-.028.306c-.007.073-.002.15.002.228.003.063.007.126.004.188v.052c.001.053.001.105-.001.159.002.05.01.1.018.151l.01.067.023.233.02.214c.037.152.07.306.1.463.03.21.088.399.147.59.032.108.066.215.094.328.017.102.077.233.138.364l.07.155.246.544.03.068.003.005.003.006.069.117.14.23.28.465.378.495.292.382.758.818c.272.254.543.507.813.757a350.442 350.442 0 01.843.7l.859.637c.29.198.577.39.854.577l.833.52c.173.102.344.2.512.295l.286.163c.517.286 1 .536 1.434.745.436.212.818.388 1.136.53zm-9.51-7.468l-.002-.002.009.015.003.003a.228.228 0 01-.01-.016z" fill="#4AF6CD"/><path d="M31.488 2.961c-.782.161-1.275.366-1.275.366a.09.09 0 00-.057.081.086.086 0 00.087.088c.001 0 .517.004 1.276.092.38.036.815.113 1.274.192.457.104.94.197 1.404.343.116.04.233.071.346.115l.33.146c.22.095.426.2.634.27.211.064.416.119.617.155.206.034.402.065.583.093.185.029.364.039.527.047.158.017.304.027.429.027.25.005.417-.014.417-.014l.007-.001.023-.005a.11.11 0 00.065-.14s-.055-.151-.19-.374a3.532 3.532 0 00-.267-.386 3.635 3.635 0 00-.416-.415 3.774 3.774 0 00-.26-.213c-.096-.06-.192-.128-.298-.186a2.603 2.603 0 00-.69-.31 3.202 3.202 0 00-.796-.129c-.275-.025-.55-.036-.825-.05-.272-.025-.545-.021-.811-.026-.266-.007-.529.02-.78.033-.252.03-.492.043-.72.085-.225.038-.438.074-.634.116zm5.622 6.15c.166.075.295.158.425.218.238.133.404.213.404.213l.01.005a.1.1 0 00.045.01.1.1 0 00.096-.102l-.003-.128c-.005-.083-.01-.208-.043-.359-.037-.148-.082-.336-.173-.528a3.074 3.074 0 00-.358-.625 6.003 6.003 0 00-.257-.318c-.098-.098-.197-.208-.308-.304a3.58 3.58 0 00-.753-.525 4.274 4.274 0 00-.904-.326c-.314-.085-.632-.151-.944-.225a12.707 12.707 0 00-1.837-.292 15.37 15.37 0 00-1.6-.06c-.932.012-1.545.105-1.545.105a.09.09 0 00-.075.07.088.088 0 00.07.103s.6.114 1.476.345c.437.113.941.261 1.47.436.264.085.532.188.804.284.27.1.54.21.803.328.263.12.517.256.751.405.238.148.459.3.682.422.223.122.437.228.651.321l.595.278c.19.09.364.174.517.25zm-.928 2.091a2.324 2.324 0 00-.253-.385 1.62 1.62 0 00-.364-.341c-.14-.1-.31-.16-.477-.225-.17-.056-.34-.111-.505-.172a7.094 7.094 0 00-.981-.275 7.55 7.55 0 00-.866-.128c-.505-.051-.848-.03-.848-.03a.076.076 0 00-.061.042.072.072 0 00.034.096s.301.142.734.368c.214.118.458.259.714.414.125.08.255.16.384.242.132.08.256.173.383.26a3.7 3.7 0 01.344.299c.1.111.207.207.31.29.102.084.225.139.335.195.108.058.226.1.334.143.103.045.21.082.312.111.103.03.185.065.266.087.16.048.276.068.276.068l.005.002a.096.096 0 00.111-.077s.02-.11.009-.29a1.542 1.542 0 00-.05-.32 2.534 2.534 0 00-.146-.374z" fill="#4AF6CD"/></svg>