<svg width="19" height="25" fill="none" xmlns="http://www.w3.org/2000/svg"><path d="M5.248 15.86a2.703 2.703 0 01-2.7-2.7.575.575 0 011.15 0c0 .856.696 1.553 1.552 1.553.855 0 1.553-.697 1.553-1.552a.575.575 0 011.148 0 2.708 2.708 0 01-2.703 2.699z" fill="#4AF6CD" stroke="#4AF6CD" stroke-width=".5"/><path d="M9.5 15.86a2.703 2.703 0 01-2.7-2.7.575.575 0 011.15 0c0 .856.696 1.553 1.552 1.553.855 0 1.553-.697 1.553-1.552a.575.575 0 011.148 0A2.708 2.708 0 019.5 15.86z" fill="#4AF6CD" stroke="#4AF6CD" stroke-width=".5"/><path d="M13.752 15.86a2.703 2.703 0 01-2.7-2.7.575.575 0 011.15 0c0 .856.697 1.553 1.552 1.553.856 0 1.553-.697 1.553-1.552a.575.575 0 011.148 0 2.708 2.708 0 01-2.703 2.699z" fill="#4AF6CD" stroke="#4AF6CD" stroke-width=".5"/><path fill-rule="evenodd" clip-rule="evenodd" d="M.422 15.186c0 5.009 4.072 9.084 9.078 9.084 5.006 0 9.078-4.075 9.08-9.084C18.58 8.35 10.237.904 9.881.59a.573.573 0 00-.74-.015C8.783.86.422 7.705.422 15.186zm9.062-13.4zm0 0c-1.62 1.422-7.916 7.329-7.916 13.399 0 4.376 3.557 7.934 7.93 7.934 4.373 0 7.93-3.558 7.93-7.934.001-5.546-6.338-11.884-7.944-13.399z" fill="#4AF6CD"/><path d="M9.5 24.27l.112-.223-.053-.027H9.5v.25zm0 0l-.112.223.053.027h.06v-.25zm9.08-9.084h.25-.25zM9.881.59l-.166.187.166-.187zm-.74-.015l.156.195.001-.001-.157-.194zm.343 1.212l.165.189.502-.439h-.667v.25zm0 0v-.25h-.629l.457.432.172-.182zm7.943 13.399h-.25.25zM9.5 24.02c-4.868 0-8.828-3.963-8.828-8.834h-.5c0 5.147 4.184 9.334 9.328 9.334v-.5zm.113.027l-.226.446.226-.446zm8.717-8.86c-.002 4.87-3.962 8.833-8.83 8.833v.5c5.144 0 9.328-4.187 9.33-9.334h-.5zM9.715.776c.173.152 2.335 2.08 4.451 4.818 2.125 2.748 4.164 6.262 4.164 9.591h.5c0-3.506-2.132-7.134-4.268-9.897C12.418 2.516 10.23.564 10.047.402l-.332.375zm-.417-.01a.324.324 0 01.417.01l.332-.375A.823.823 0 008.983.38l.315.388zM.672 15.188c0-3.655 2.046-7.18 4.171-9.85C6.963 2.677 9.126.908 9.297.77L8.984.38c-.186.15-2.381 1.945-4.532 4.648C2.306 7.723.172 11.36.172 15.188h.5zM9.32 1.596v.001l.329.377-.329-.377zm.164.44v-.5.5zm.172-.432l-.344.363.344-.363zm-.337-.007c-.816.717-2.81 2.563-4.601 4.996-1.788 2.428-3.4 5.476-3.4 8.591h.5c0-2.955 1.536-5.895 3.302-8.294 1.762-2.392 3.726-4.211 4.53-4.916l-.33-.376zm-8 13.587c0 4.514 3.668 8.184 8.179 8.184v-.5c-4.235 0-7.68-3.446-7.68-7.684h-.5zm8.179 8.184c4.51 0 8.18-3.67 8.18-8.184h-.5c0 4.238-3.446 7.684-7.68 7.684v.5zm8.18-8.184c0-2.856-1.625-5.882-3.417-8.358-1.798-2.485-3.797-4.46-4.605-5.223l-.343.364c.797.752 2.77 2.703 4.543 5.152 1.78 2.459 3.322 5.375 3.321 8.065h.5z" fill="#4AF6CD"/></svg>