<svg width="26" height="24" fill="none" xmlns="http://www.w3.org/2000/svg"><path d="M17.334 8.825H0v2.167h17.334a5.424 5.424 0 005.416-5.42c0-2.988-2.43-5.42-5.416-5.42a5.424 5.424 0 00-5.417 5.42h2.167a3.255 3.255 0 013.25-3.252c1.791 0 3.25 1.46 3.25 3.253a3.255 3.255 0 01-3.25 3.252zm3.25 4.335H0v2.169h20.584a3.255 3.255 0 013.25 3.252 3.255 3.255 0 01-3.25 3.252 3.255 3.255 0 01-3.25-3.252h-2.167c0 2.988 2.43 5.42 5.417 5.42A5.424 5.424 0 0026 18.58c0-2.99-2.43-5.42-5.416-5.42z" fill="#4AF6CD"/></svg>